<svg xmlns="http://www.w3.org/2000/svg" viewBox="0 0 512 512">
  <defs/>
  <path fill="#037e73" d="M380 86h59c4 0 8 4 8 9v246h-76V95c0-5 4-9 9-9z"/>
  <path fill="#7c4b37" d="M85 459c-11 0-20-9-20-20v-34h40v34c0 11-9 20-20 20zM429 459c-12 0-20-9-20-20v-34h39v34c0 11-8 20-19 20z"/>
  <path fill="#e53950" d="M295 341h-76V62c0-5 3-9 8-9h59c5 0 9 4 9 9z"/>
  <path fill="#0078c8" d="M219 341h-77V62c0-5 4-9 9-9h59c5 0 9 4 9 9z"/>
  <path fill="#7bacdf" d="M142 109h77v37h-77z"/>
  <path fill="#fec165" d="M142 341H66V62c0-5 4-9 9-9h59c4 0 8 4 8 9z"/>
  <path fill="#0078c8" d="M304 86h58c5 0 9 4 9 9v246h-76V95c0-5 4-9 9-9z"/>
  <path fill="#aa6a51" d="M496 412H17c-5 0-9-4-9-9v-53c0-5 4-9 9-9h479c4 0 9 4 9 9v53c0 5-5 9-9 9z"/>
  <path fill="#935b44" d="M496 341h-40c5 0 9 4 9 9v53c0 5-4 9-9 9h40c4 0 9-4 9-9v-53c0-5-5-9-9-9z"/>
  <path fill="#fdb441" d="M134 53h-34c4 0 8 4 8 9v279h34V62c0-5-4-9-8-9z"/>
  <path fill="#0268b4" d="M362 86h-34c5 0 9 4 9 9v246h34V95c0-5-4-9-9-9z"/>
  <path fill="#006e66" d="M439 86h-34c4 0 8 4 8 9v246h34V95c0-5-4-9-8-9z"/>
  <path fill="#ca2e43" d="M286 53h-34c5 0 9 4 9 9v279h34V62c0-5-4-9-9-9z"/>
  <path fill="#fee8c7" d="M219 109h76v37h-76z"/>
  <path fill="#fedba6" d="M261 109h34v37h-34z"/>
  <path fill="#7bacdf" d="M371 292h-76v-33h76z"/>
  <path fill="#5f99d7" d="M337 259h34v33h-34z"/>
  <path fill="#0ab69f" d="M447 292h-76v-33h76z"/>
  <path fill="#01998d" d="M413 259h34v33h-34z"/>
  <path fill="#0268b4" d="M210 53h-34c5 0 9 4 9 9v279h34V62c0-5-4-9-9-9z"/>
  <path fill="#5f99d7" d="M185 109h34v37h-34z"/>
  <path fill="#fee8c7" d="M66 109h76v37H66z"/>
  <path fill="#fedba6" d="M108 109h34v37h-34z"/>
  <path d="M496 334h-41V95c0-9-7-16-16-16h-59l-9 3c-2-2-5-3-9-3h-60V62c0-9-7-16-16-16h-59c-3 0-6 0-8 2-3-2-6-2-9-2h-59c-3 0-6 0-9 2-2-2-5-2-8-2H75c-9 0-17 7-17 16v156a7 7 0 1015 0v-64h62v180H73v-81a7 7 0 10-15 0v81H17c-10 0-17 7-17 16v53c0 9 7 17 17 17h40v19a27 27 0 0055 0v-19h219a7 7 0 100-15H17l-2-2v-53l2-1h479l1 1v53l-1 2H366a7 7 0 100 15h35v19a27 27 0 0055 0v-19h39c10 0 17-8 17-17v-53c0-9-7-16-16-16zM97 420v19a12 12 0 01-25 0v-19zm53-303h61v22h-61zm76 0h61v22h-61zm76 149h62v18h-62zm77 0h61v18h-61zm1-172h59l1 1v156h-61V95l1-1zm-76 0h58l2 1v156h-62V95l2-1zm-77-33h59l1 1v40h-61V62l1-1zm-76 0h59l1 1v40h-61V62l1-1zm-76 0h59l1 1v40H73V62l2-1zm-2 56h62v22H73zm77 37h61v180h-61zm76 0h61v180h-61zm76 145h62v35h-62zm77 35v-35h61v35zm62 105a12 12 0 01-25 0v-19h25z"/>
</svg>
