<svg xmlns="http://www.w3.org/2000/svg" viewBox="0 0 512 512">
  <defs/>
  <path fill="#ff656b" d="M164 71C85 71 8 33 8 33v193c0 49 23 95 62 124 24 18 55 36 94 48 39-12 70-30 94-48 39-29 62-75 62-124V33s-78 38-156 38zM50 143s42-28 78 23c0 0-54 36-78-23zm142 133c-9-2-18-3-28-3-45 0-86 30-86 30s12-76 86-76c11 0 20 2 28 5z"/>
  <path fill="#ff3e4c" d="M320 33l-18 8v82c0 3-3 5-6 5-50-12-97-32-115-40-3-1-7 1-7 5v135c6 0 12 2 18 4v44l-18-3v33c0 25 6 55 23 80 24-11 44-23 61-36 39-29 62-75 62-124z"/>
  <path fill="#ffdc00" d="M348 152c-78 0-156-38-156-38v192c0 49 23 95 62 125 24 18 55 35 94 48 39-13 70-30 94-48 39-30 62-76 62-125V114s-77 38-156 38zm-114 71s42-27 78 23c0 0-54 37-78-23zm114 169c-73 0-86-75-86-75s41 30 86 30 86-30 86-30-12 75-86 75zm36-146c36-50 78-23 78-23-24 60-78 23-78 23z"/>
  <path fill="#ffbf00" d="M486 122v184c0 49-23 95-62 125-22 16-50 33-85 45l9 3c39-13 70-30 94-48 39-30 62-76 62-125V114l-18 8z"/>
  <g>
    <path d="M508 107c-2-1-5-2-7 0a401 401 0 01-174 36V33c0-6-6-9-10-7-1 0-77 38-153 38S12 26 11 26c-5-2-11 1-11 7v74a8 8 0 1015 0V44c24 11 86 35 149 35s124-24 148-35v98c-62-9-116-35-117-35-4-3-10 1-10 6v64a8 8 0 1015 0v-52c24 11 85 34 148 34s125-23 149-34v136a8 8 0 1015 0V113c0-2-1-5-4-6z"/>
    <path d="M259 208c-16 1-28 9-29 9-3 2-4 6-3 9 8 20 20 32 36 37l14 2c21 0 39-12 40-12 3-3 4-8 2-11-21-29-44-34-60-34zm8 40c-9-3-17-10-23-21 4-2 9-4 16-4 15 0 29 7 41 21-8 4-21 8-34 4zM380 253c1 0 18 12 39 12l15-2c16-5 27-17 35-37 2-3 0-7-3-9 0 0-12-8-29-9-15 0-38 5-59 34-3 3-2 8 2 11zm73-26c-6 11-14 18-23 21-13 4-27 0-35-4 23-27 47-22 58-17zM266 311c-5-4-13 1-12 7 0 1 4 21 17 41 13 19 36 41 77 41 42 0 65-22 77-41 14-20 17-40 17-41 1-6-6-11-12-7 0 0-40 28-82 28s-81-28-82-28zm147 40a73 73 0 01-65 34c-27 0-49-11-64-34l-9-17c17 9 44 20 73 20s57-11 74-20l-9 17zM78 182c5 2 10 2 15 2 21 0 38-11 39-12 4-2 5-7 2-11-21-29-44-34-59-33-17 0-29 8-29 8-3 2-5 6-3 9 8 20 19 32 35 37zm39-19c-9 4-22 9-35 5-9-3-17-11-23-22 11-4 35-9 58 17z"/>
    <path d="M504 283c-4 0-7 4-7 8v15c0 47-22 91-59 119-27 20-57 36-90 46-32-10-62-26-89-46-37-28-59-72-59-119v-99a8 8 0 00-15 0v15c-7-2-14-2-21-2-42 0-65 22-77 41-14 20-17 40-17 41-1 6 6 11 12 7 0 0 40-29 82-29l21 3v23c0 25 5 49 15 70l-36 15c-33-11-63-26-90-47-37-27-59-72-59-119v-88a8 8 0 00-15 0v88c0 52 24 101 65 131a325 325 0 00101 50c14-5 28-10 41-17 11 19 25 35 43 48a325 325 0 00101 49c34-11 67-27 96-49 41-30 65-79 65-131v-15c0-4-3-8-8-8zm-319-16l-21-2c-29 0-57 12-74 21l9-17c15-23 37-34 65-34l21 2v30z"/>
  </g>
</svg>
