<svg xmlns="http://www.w3.org/2000/svg" viewBox="0 0 512 512"><defs/><g fill="#fdd36e"><circle cx="256" cy="256" r="256"/><circle cx="256" cy="256" r="256"/></g><g fill="#66bd6d"><path d="M251 397c-20 10-36 23-48 37-2 2-5 0-5-3 6-29 16-48 24-61 2-3-4-6-9-4-30 18-50 39-63 58-1 1-3 0-3-1 5-32 12-53 18-67 2-4-3-7-6-4-23 19-38 42-49 63 0-28-7-53-19-73-1-3-4-3-5 0-13 22-19 48-19 73-11-21-26-43-48-63 26 65 78 117 143 142 22-7 42-17 61-29 11-31 24-51 32-63 3-3-1-7-4-5z"/><path d="M446 415c0-25-6-51-19-73-2-3-4-3-6 0-12 20-19 45-19 73-10-21-26-44-48-63-4-3-9 0-7 4 6 14 14 35 18 67 0 1-1 2-2 1-14-19-34-40-64-58-4-2-11 1-8 4 7 13 17 32 23 61 1 3-3 5-5 3-12-14-28-27-47-37-4-2-7 2-5 5 9 12 21 32 32 63 19 12 39 22 61 29 65-25 117-77 143-141-22 19-37 41-47 62z"/></g><path fill="#845646" d="M226 14v496c20 3 40 3 60 0V14c0-6-4-11-9-13a259 259 0 00-42 0c-5 2-9 7-9 13z"/><path fill="#724937" d="M277 1a259 259 0 00-42 0c-5 2-9 7-9 13v279h60V14c0-6-4-11-9-13z"/><path fill="#aa7971" d="M464 258H48c-12 0-23-10-23-23V47c0-12 11-23 23-23h416c12 0 23 11 23 23v188c0 13-11 23-23 23z"/><path fill="#a06f64" d="M79 235V47c0-12 10-23 23-23H48c-12 0-23 11-23 23v188c0 13 11 23 23 23h54c-13 0-23-10-23-23z"/><g fill="#cdf3f9"><path d="M155 102h-19v26c0 6-15 6-15 0V67c0-1 0-2 2-3 4-2 13-1 13 3v24h19V67c0-1 0-2 2-3 4-2 13-2 13 3v61c0 2-1 3-3 4-4 2-12 1-12-4v-26zM175 126c20-61 17-60 22-63 5-2 14-1 16 4l18 60c0 5-13 9-15 3l-3-12h-20c-3 11-3 13-5 14-4 2-14-1-13-6zm35-19l-7-26-7 26h14zM238 64l4-1c17 0 34-4 41 12 3 8 5 33-22 33h-10v20c0 6-15 6-15 0 1-65-1-62 2-64zm13 12v20c9 0 19 3 19-10-1 0 1-10-9-10h-10zM293 64l4-1c17 0 22-1 28 1l8 4c8 7 9 26-1 34-7 7-18 5-26 6v20c0 6-15 6-15 0 1-65-1-62 2-64zm13 12v20c8 0 18 3 18-10 0 0 1-5-2-8l-6-2h-10zM360 103l-20-34c0-5 11-8 13-6l15 27c15-25 13-27 18-27 4 0 12 3 10 7l-20 34v24c0 6-15 6-15 0l-1-25zM117 185c13 1 15-1 17 2 2 2 2 5 0 8-1 3-4 1-17 2v16c25 1 27-1 29 2 2 4 1 11-4 11-34 0-35 1-38-1-4-2-2 0-2-64 0-2 0-3 2-4l4-1c35 1 36-1 38 2 2 4 1 11-4 11h-25v16zM149 219c19-61 16-60 21-62l6-1 7 1 3 3c20 64 19 60 17 62-2 3-8 5-11 4-3-2-2-4-5-15h-21c-3 11-2 13-5 15-4 2-14-2-12-7zm34-19l-7-26-7 26h14zM238 210c1-2 1-5-2-7-8-8-28-9-28-28 0-7 3-12 8-15 10-7 27-5 34-1 4 3 2 10-1 12-5 3-7-3-16-3l-8 2c-3 2-2 6 0 8l13 6c22 10 20 36 1 42-15 4-36-3-32-14l3-5c5-2 7 3 14 6 4 1 11 1 14-3zM306 158c2 4 1 12-3 12h-14v52l-2 3-5 1-5-1-3-3v-52c-12-1-14 1-16-3-3-3-2-11 3-11 43 1 43-1 45 2zM328 185c14 1 16-1 18 2l1 4-1 4c-2 3-5 1-18 2v16c25 1 27-1 29 2 2 4 1 11-3 11-35 0-36 1-39-1l-2-3c1-64-2-63 2-65 3-2 4-1 39-1 6 0 6 13 0 13h-26v16zM366 157c2-2 4-1 23-1 6 0 12 1 17 4 10 8 9 31-5 36l12 23c0 2-1 4-3 5-2 2-6 4-9 2-2-1-1-1-15-28h-6v24c0 6-15 6-15 0 0-65-1-62 1-65zm14 12v18c10 0 18 2 18-9s-9-8-18-9z"/></g><path fill="#96dff8" d="M361 371c-60 11-91 65-91 65a65 65 0 005 75c43-3 83-17 118-39 7-20 12-48 4-78-4-16-20-26-36-23z"/><path fill="#80cbf0" d="M361 371c-60 11-91 65-91 65a65 65 0 005 75l11-1c-5-17-2-39 10-58 0 0 31-54 82-70 4-2 8-2 12-1-7-8-18-12-29-10z"/><g fill="#cdf3f9"><path d="M307 396c28 19 60 31 94 35l-1-23c-26-3-50-12-72-26-8 4-15 9-21 14zM284 417l-13 18c34 27 74 41 113 43l9-6 5-17c-38 1-79-11-114-38zM261 465c-1 11 1 22 5 32l26 13c15-3 30-6 44-11-22-4-49-13-75-34z"/></g><g fill="#96dff8"><path d="M261 465c-1 11 1 22 5 32l19 10c-2-8-2-17 0-26-8-4-16-10-24-16zM331 410l20-16c-8-3-16-7-23-12-8 4-15 9-21 14l24 14zM296 452l13-19-25-16-13 18c8 7 16 12 25 17z"/></g><path fill="#fc7a95" d="M251 436s-31-54-91-65c-16-3-32 7-36 23-9 34-1 65 7 85 34 19 73 31 114 33 18-21 21-52 6-76z"/><g fill="#fe6782"><path d="M245 512l1-1-2 1h1zM148 376l2-5c-12 2-22 10-26 23-9 34-1 65 7 85 15 9 32 16 49 21-23-19-46-75-32-124z"/></g><path fill="#fbb659" d="M282 362a32 32 0 00-43 0c-45 41-42 102-42 102 0 17 7 33 18 45 31 5 62 4 93-2 10-12 16-27 16-43 0 0 3-61-42-102z"/><path fill="#f7a15f" d="M239 362c-45 41-42 102-42 102 0 17 7 33 18 45l28 3a75 75 0 01-16-48s-2-61 32-102c3-4 6-6 10-8-10-2-22 0-30 8z"/><path fill="#fdd36e" d="M310 400c-4-7-7-14-12-20l-8 1c-15 0-15-12-30-12-14 0-14 12-29 12l-8-1c-5 6-9 13-12 20 6 3 9 10 20 10 15 0 15-13 29-13 15 0 15 13 30 13 10 0 13-7 20-10z"/><path fill="#fbb659" d="M235 410c3-13 9-27 17-40-7 4-10 11-21 11l-8-1c-5 6-9 13-12 20 6 4 11 12 24 10z"/><path fill="#fdd36e" d="M288 426c-14 0-14 12-29 12s-15-12-30-12-14 13-30 12c-2 10-2 19-2 29 17 2 17-13 32-13s15 13 30 13 15-13 29-13c15 0 15 13 30 13l6-1-3-28h-3c-15 0-15-12-30-12z"/><path fill="#fbb659" d="M231 426c-17-1-16 13-32 12 0 3-3 14-2 29 16 2 17-11 30-13 1-7 1-17 4-28z"/><path fill="#fdd36e" d="M290 495c-15 0-15-12-30-12-14 0-14 12-29 12-16 0-15-13-31-12 3 10 8 18 15 26a258 258 0 0093-2c6-7 10-15 13-24-16-1-16 12-31 12z"/><path fill="#fbb659" d="M233 495c-17 2-16-14-33-12 3 11 9 19 15 26l28 3-10-17z"/><circle cx="135" cy="451.5" r="10.5" fill="#fc7a95"/><g fill="#fc90aa"><circle cx="166.5" cy="483" r="10.5"/><circle cx="150" cy="405.1" r="10.5"/></g><path fill="#fc7a95" d="M144 396c-6 4-6 13 0 18v-18z"/><g fill="#fc90aa"><circle cx="181.4" cy="436.6" r="10.5"/><path d="M207 390l-16-9a11 11 0 1016 9z"/></g><path fill="#58af5c" d="M366 487c6-28 16-48 23-60 3-3-4-7-8-4-30 18-50 39-64 58-1 1-2 0-2-1 4-32 12-53 18-67 2-4-3-8-7-5-22 20-38 43-48 63 0-27-7-53-19-73-2-2-4-2-6 0-12 20-19 46-19 73-10-20-26-43-48-63-4-3-9 1-7 5 6 13 13 34 18 65 0 2-2 3-3 1-14-18-34-39-63-56-4-3-11 1-8 4 7 12 17 32 23 60 69 33 151 33 220 0z"/><path fill="#469b46" d="M131 423c-4-3-11 1-8 4 7 12 17 32 23 60 13 7 28 12 42 16-9-24-18-43-27-59l-30-21z"/></svg>