<svg xmlns="http://www.w3.org/2000/svg" viewBox="0 0 512 512">
  <defs/>
  <path fill="#ff7816" d="M467 0h-43l-31 30h74c8 0 15 7 15 15v23a134 134 0 01-91 127l-22 7a15 15 0 0010 28l21-7A163 163 0 00512 68V45c0-25-20-45-45-45zm0 0"/>
  <path fill="#ff9f00" d="M143 202l-22-7A133 133 0 0130 68V45c0-8 7-15 15-15h78L88 0H45C20 0 0 20 0 45v23a164 164 0 00112 155l21 7 5 1a15 15 0 005-29zm0 0"/>
  <path fill="#ffd400" d="M302 293v22c0 8 7 15 15 15 25 0 45 20 45 45v30c0 8-7 15-15 15H165c-8 0-15-7-15-15v-30c0-25 20-45 45-45 8 0 15-7 15-15v-22c-56-18-97-67-103-126L88 0h336l-19 167c-6 59-47 108-103 126zm0 0"/>
  <path fill="#ff9f00" d="M347 420h-91V0h168l-19 167c-6 59-47 108-103 126v22c0 8 7 15 15 15 25 0 45 20 45 45v30c0 8-7 15-15 15zm0 0"/>
  <path fill="#ff9f00" d="M330 113c-1-6-6-9-12-10l-33-5-15-30c-3-5-9-7-14-7s-11 2-13 7l-15 30-34 5c-6 1-11 4-12 10-2 6 0 11 4 15l24 24-6 32c-1 5 1 11 6 15 5 3 11 4 16 1l30-16 30 16c5 3 11 2 16-1 5-4 7-10 6-15l-6-32 24-24c4-4 6-10 4-15zm0 0"/>
  <path fill="#ec5569" d="M392 405v91H120v-91c0-8 7-15 15-15h242c8 0 15 7 15 15zm0 0"/>
  <path fill="#ff7816" d="M286 200l-30-16V61c5 0 11 2 13 7l16 30 33 5c6 1 11 4 12 10 2 6 0 12-4 15l-24 24 6 32c1 5-1 11-6 15-5 3-11 4-16 1zm0 0"/>
  <path fill="#cc2e43" d="M392 405v91H256V390h121c8 0 15 7 15 15zm0 0"/>
  <path fill="#697c86" d="M422 497c0 8-7 15-15 15H105c-8 0-15-7-15-15s7-15 15-15h302c8 0 15 7 15 15zm0 0"/>
  <path fill="#465a61" d="M422 497c0 8-7 15-15 15H256v-30h151c8 0 15 7 15 15zm0 0"/>
</svg>
