<svg xmlns="http://www.w3.org/2000/svg" viewBox="0 -1 512 511">
  <defs/>
  <path fill="#e2e2e2" d="M213 140c0-16-6-30-17-42L92 11a10 10 0 00-14 15l80 79c5 5 5 13 0 18l-35 35c-5 5-13 5-18 0L25 79a10 10 0 00-15 14l88 104c11 10 26 16 41 17h30c14 0 28 6 37 16l240 263c11 13 33 11 46-1 12-12 13-34 1-46L229 207c-10-10-16-23-16-37zm0 0"/>
  <path fill="#d8d6d4" d="M501 464a35 35 0 00-1-6c-1-4-4-8-7-12L229 207a49 49 0 01-12-19c-3-6-4-12-4-18v-30a63 63 0 00-17-42L92 11a11 11 0 00-6-3 10 10 0 00-8 3c-4 4-4 11 0 15l80 79a12 12 0 010 18l-11 11 7 6a63 63 0 0117 43c0 15 9 30 23 37l1 1a59 59 0 013 2l2 2h1l1 1 1 1 1 1 2 2 190 208 55 50c3 4 6 8 7 13l7 1h4a36 36 0 007-1l2-1a38 38 0 006-2l1-1 1-1 2-1a33 33 0 0013-28v-3zm0 0"/>
  <path fill="#e2e2e2" d="M410 194c19-1 37-11 47-27l24-35c20-28 27-64 21-98a24 24 0 00-22-20c-35-1-69 10-95 33l-31 28a63 63 0 00-22 50l2 30c0 14-5 28-14 38L71 448c-12 12-9 34 4 45 13 12 35 12 46-1l224-277c8-11 21-18 35-19zm0 0"/>
  <path fill="#d8d6d4" d="M502 34a24 24 0 00-22-20h-4-4-4-1l-3 1c0 27-8 54-24 76l-23 35c-9 13-21 22-36 26a174 174 0 00-50 22l-1 2-1 2v1l-1 1v1l-1 2-1 2-1 1v1l-1 1-1 1-1 1-1 1-1 2L71 448c-12 12-9 34 4 45 13 12 35 12 46-1l224-277c8-11 21-18 35-19l30-2c19-1 37-11 47-27l24-35c20-28 27-64 21-98zm0 0"/>
  <path d="M381 204l30-2c21-2 41-13 53-31l23-35c21-30 29-67 23-103a32 32 0 00-30-26c-37-2-72 10-100 34l-31 28a71 71 0 00-25 56v1l2 30c1 11-4 23-12 31L66 443c-7 6-10 16-10 26 1 12 6 23 14 30a43 43 0 0032 10c10 0 19-5 25-12l223-277c8-10 19-15 31-16zm-42 6L115 487c-3 4-9 7-15 7-7 1-14-2-20-6-5-5-8-12-8-19-1-6 1-12 5-16l248-255c11-11 17-27 16-43l-1-30c-1-17 6-33 19-44l31-28c25-22 57-33 89-31a16 16 0 0116 14c5 32-2 65-20 92l-24 35c-10 14-25 22-41 24l-30 2c-16 1-31 8-41 21zm0 0"/>
  <path d="M498 441L331 289a8 8 0 10-10 11l166 152c4 4 7 9 7 15 0 7-3 15-8 20s-12 7-19 7-12-2-16-6L303 325a8 8 0 10-11 10l148 163c7 7 16 11 26 12h1a43 43 0 0042-43c0-11-4-20-11-26zm0 0M93 203a71 71 0 0046 18h30c12 1 23 5 31 14l14 15a8 8 0 0010 0c4-3 4-7 1-11l-13-14a58 58 0 00-43-19h-30c-13 0-26-5-36-14L16 88a3 3 0 012-5l2 1 79 80c8 8 21 8 29 0l9-10 17-16 9-10c8-7 8-20 0-28L84 20a3 3 0 013-3l104 87c9 10 14 23 15 36v30c0 16 6 31 18 42l15 13a8 8 0 1010-11l-14-13c-9-8-14-19-14-31v-30a71 71 0 00-20-48L97 5c-7-6-17-6-24 1s-7 18 0 25l79 80c2 2 2 5 0 7l-4 3-88-88a8 8 0 10-11 11l89 88-6 6-89-89a8 8 0 00-11 11l89 89-4 4c-2 2-5 2-7 0L31 73a18 18 0 00-26 0c-6 7-7 17-1 25l88 104 1 1zm0 0"/>
</svg>
