<svg xmlns="http://www.w3.org/2000/svg" viewBox="0 0 512 512">
  <defs/>
  <path fill="#ffe266" d="M208 396h60v70h-60z"/>
  <path fill="#efaa66" d="M208 396h60v70h-60z"/>
  <path fill="#ffe266" d="M422 384c-9 8-22 8-31 0L55 47a22 22 0 0131-31l336 337c9 8 9 22 0 31z"/>
  <path fill="#efaa66" d="M422 384c-9 8-22 8-31 0L55 47a22 22 0 0131-31l336 337c9 8 9 22 0 31z"/>
  <path fill="#ffe266" d="M389 273A167 167 0 11165 50a20 20 0 00-18-37 208 208 0 10278 278 20 20 0 10-36-18zM312 502H164a24 24 0 010-49h148a24 24 0 010 49z"/>
  <circle cx="238.3" cy="200.1" r="129.6" fill="#8bb6ef" transform="rotate(-45 238 200)"/>
  <g fill="#bdf4e3">
    <path d="M267 323c-25-39-68-32-77-39-13-11 9-32-6-42-22-15-62 10-62 10s8 38 53 62 92 9 92 9zM117 198c48-4 60-16 61-34s-42-30-42-30-17 2-23 26c-5 24 4 38 4 38zM358 229c-33 15-101 24-108-14-3-14 7-38 12-44 6-9 6-22-8-25-10-2-23-3-28-18-11-29 41-51 41-51s42 0 80 53c39 53 11 99 11 99z"/>
  </g>
  <path fill="#8388ef" d="M238 70l-11 1a107 107 0 11-118 117v12A130 130 0 10238 70z"/>
  <path fill="#b1b7e3" d="M190 284l-2-3c-22-6-41-18-55-35l-11 6s2 9 10 22c13 20 32 35 54 45 41 15 81 4 81 4-25-39-68-32-77-39zM358 229s8-14 10-35c-1-25-9-47-22-66-39-51-79-51-79-51l-6 3a107 107 0 0141 162c20-1 41-6 56-13z"/>
  <path fill="#fff" d="M180 136l-7-2c-4-4-5-10-1-14 10-13 26-19 27-20a10 10 0 017 19s-12 5-18 13c-2 3-5 4-8 4z"/>
  <g fill="#440a29">
    <path d="M422 384zM429 346l-16-16c8-11 15-22 21-34a30 30 0 10-55-27c-2 6-6 12-9 17l-13-12A140 140 0 00165 82l-13-13 17-10a31 31 0 009-49c-10-9-24-12-35-6-12 6-24 13-34 21L93 9a32 32 0 00-45 46l15 15a220 220 0 00-43 131c0 106 77 194 178 213v29h-34a35 35 0 000 69h148a35 35 0 000-69h-34v-28a217 217 0 0090-40l16 16a32 32 0 0045 0c13-13 13-33 0-45zm-72-44l-16 17-13-12 17-17zM107 114l13 13a140 140 0 00192 192l12 12a157 157 0 01-217-217zm79 174c4 3 10 4 18 6 15 2 36 6 52 24a120 120 0 01-125-65c14-6 37-15 50-6 4 3 3 6 1 15-2 8-5 19 4 26zm-51-148c16 5 37 16 37 24-1 8-2 23-53 28 1-19 7-36 16-52zm223 60l-2 23h-1c-25 12-66 18-86 8-8-4-12-10-14-18-2-10 8-33 11-38 6-7 7-16 5-23-3-6-8-10-16-12l-3-1c-11-1-17-3-21-13-6-20 26-37 36-42 52 13 91 60 91 116zM247 81c-15 10-35 27-27 49 6 17 20 20 29 21l4 1c3 1 5 2 6 4 1 3 0 8-2 12-5 6-16 32-13 48 2 11 9 20 20 25 9 5 21 7 33 7 19 0 40-5 55-10-13 37-44 67-82 77-19-26-47-31-64-33l-12-3c-3-3-2-6 0-14s5-20-6-28c-19-13-48-1-61 5-5-12-8-24-8-38 44-4 63-15 65-39 1-19-29-31-42-35a119 119 0 01105-49zm-99 12l-16 17-13-12 17-17zM62 40a12 12 0 0117-16l14 14-17 17zm264 437c0 8-7 15-14 15H164a14 14 0 010-29h148c7 0 14 7 14 14zm-69-34h-39v-26l20 1 19-1v26zm-19-45a198 198 0 01-86-376l4-1a10 10 0 015 20A178 178 0 0061 202a176 176 0 00336 76 10 10 0 0119 9 199 199 0 01-178 111zm177-21a12 12 0 01-17 0l-14-15 17-16 14 14c4 4 4 12 0 17z"/>
    <path d="M291 143c-3 0-6-3-6-6v-8a6 6 0 0112 0v8c0 3-3 6-6 6zM322 165c-4 0-6-3-6-6v-8a6 6 0 0112 0v8c0 3-3 6-6 6zM298 192c-4 0-7-3-7-6v-8a6 6 0 0113 0v8c0 3-3 6-6 6z"/>
  </g>
  <g>
    <circle cx="48.3" cy="421.8" r="18.7" fill="#ffe266" transform="rotate(-79 48 422)"/>
    <circle cx="313.8" cy="32.3" r="7.9" fill="#ffe266" transform="rotate(-81 314 32)"/>
    <g fill="#fef2a8">
      <path d="M466 152l7 18 1 2 16 7c2 1 2 5 0 6l-16 7-1 1-7 18c-1 3-4 3-5 0l-6-18-1-1-16-7c-3-1-3-5 0-6l16-7 1-2 6-18c1-2 4-2 5 0zM431 17l8 24 3 2 21 10c3 1 3 6 0 7l-21 10-3 2-8 24c-1 4-6 4-7 0l-9-24-2-2-22-10c-3-1-3-6 0-7l22-10 2-2 9-24c1-4 6-4 7 0z"/>
    </g>
  </g>
</svg>
