<svg xmlns="http://www.w3.org/2000/svg" viewBox="-6 0 595 595">
  <defs/>
  <path fill="#c1c1c1" d="M56 266h66v224H56zm0 0M144 209v42c0 8-7 15-15 15H49c-8 0-15-7-15-15v-42zm0 0M144 547v-43c0-8-7-14-15-14H49c-8 0-15 6-15 14v43zm0 0M258 266h67v224h-67zm0 0M346 209v42c0 8-6 15-14 15h-81c-8 0-14-7-14-15v-42zm0 0M346 547v-43c0-8-6-14-14-14h-81c-8 0-14 6-14 14v43zm0 0M461 266h66v224h-66zm0 0M548 209v42c0 8-6 15-14 15h-80c-8 0-15-7-15-15v-42zm0 0M548 547v-43c0-8-6-14-14-14h-80c-8 0-15 6-15 14v43zm0 0M575 157L291 8 8 157zm0 0"/>
  <path fill="#c1c1c1" d="M35 152h513c9 0 16 7 16 16v24c0 9-7 17-16 17H35c-9 0-16-8-16-17v-24c0-9 7-16 16-16zm0 0M564 587v-24c0-9-7-16-16-16H35c-9 0-16 7-16 16v24zm0 0"/>
  <path fill="#1d2128" d="M11 164v28c0 10 6 20 15 23v36c0 12 10 22 22 23v208c-12 0-22 10-22 22v36c-9 4-15 13-15 23v24c0 4 3 8 8 8h545c5 0 8-4 8-8v-24c0-10-6-19-16-23v-36c0-12-9-22-21-23V274c12-1 21-11 21-23v-36c10-3 16-13 16-23v-24-3a8 8 0 006-15L295 1h-7L4 150a8 8 0 007 14zm545 4v25c0 4-4 8-8 8H35c-5 0-8-4-8-8v-25c0-4 3-8 8-8h513c4 0 8 4 8 8zm-16 61h-93v-12h93v12zm-21 253h-50V274h50zm-67 0c-12 0-21 10-21 22v35h-77v-35c0-12-9-22-21-22V274c12-1 21-11 21-23v-34h77v34c0 12 9 22 21 23zm88 57h-93v-13h93zm-295 0v-13h93v13zm-93 0v-35c0-12-10-22-22-22V274c12-1 22-11 22-23v-34h77v34c0 12 9 22 21 23v208c-12 0-21 10-21 22v35h-77zm-110 0v-13h94v13zm22-265h50v208H64zm72-57v12H42v-12zm202 0v12h-93v-12zm0 293h-93v-6c0-3 3-6 6-6h81c3 0 6 3 6 6zm-22-29h-50V274h51zm16-223h-81c-3 0-6-3-6-7v-6h93v6c0 4-3 7-6 7zm-290-7v-6h94v6c0 4-3 7-7 7H49c-4-1-7-3-7-7zm7 247h80c4 0 7 3 7 6v6H42v-6c0-3 3-6 7-6zm507 81H27v-16c0-4 3-8 8-8h513c4 0 8 4 8 8zm-16-75v6h-93v-6c0-3 3-6 7-6h80c4 0 6 3 6 6zm-6-246h-80c-4 0-7-3-7-7v-6h93v6c0 4-2 7-6 7zM291 17l241 127H51zm0 0"/>
</svg>
