<svg xmlns="http://www.w3.org/2000/svg" viewBox="0 -50 512 512">
  <defs/>
  <path fill="#fff" d="M455 281v-1l-2-2-13-15 1-1 2-5c0-5 0-9-2-14l-1-2h5l9 1 5 5 21 22 6 8 2 3h-3l-27 2-2 1zm0 0M428 283l-1-1-12-15 2-1a8 8 0 004-6l1-3 2 2 5 4 5 1h1l18 19h-5l-18 1h-1zm0 0M391 285l-1-2-23-40h4l18-1h2v2c1 9 6 18 14 21l4 2h1v1l14 17h-4l-27 1h-1zm0 0M359 286l-1-1-12-19 1-1 4-3c2-3 3-7 2-11l-2-5-1-3h13l25 43h-4l-24 1h-1zm0 0M330 287l-11-18 2-1 5-5 1-3 2 2 7 5h5l1 1v1l13 18-4 1h-20zm0 0M300 287l-1-3-5-12 2-1c3-1 5-3 7-7l1-2 2 2 7 4h1v1l1 1 11 18h-26zm0 0M283 288h-22v-43l15-1v2c0 5 0 11 2 17 2 4 6 7 10 8l1 1 6 13v1l1 2h-13zm0 0M255 288h-34v-3l1-1 1-3 1-7v-1h1l1-1c9-5 14-15 13-25v-2h18v43zm0 0M215 288l-22-1h-4l9-15 1-1h1l6-3 4-3 4-3v4c0 3 1 6 3 7l1 1h2v2l-1 4a48 48 0 00-2 6v2zm0 0M184 287l-20-1h-3l24-41h12l-2 3-5 9c0 1-2 6 0 10l3 3 1 1-9 14v1l-1 1zm0 0M155 285l-27-1h-4l2-3 8-12h1v-1l3-1c7-4 13-10 18-16l2-5 1-2h2l15 1h4l-23 40zm0 0M118 283l-19-1h-3l12-16h1c4-1 7-2 12-6l3-2v4c0 2 0 4 2 5l1 1 2 1-1 2-8 11-1 1zm0 0M90 281l-20-1-5-1 16-14 1-1h1l7-2 6-4 3-2v3l1 2 2 3 2 1-12 14v1l-1 1zm0 0M60 279l-34-3-6-1 44-30 2-1v-1c5-3 7-5 12-5h1l7 1 5 1-4 3-7 6c-4 4-5 8-3 11v1l1 1-1 1-14 12-1 3-1 1zm0 0"/>
  <path fill="#939baa" d="M201 337c-62 0-118-2-171-6-2-1-8-1-12-5-5-5-6-10-6-12l-6-35c0-2-1-7 2-11 2-5 5-7 6-8l41-28 2-1a34 34 0 0122-8l15 1h1l7 1a767 767 0 00128 4 9212 9212 0 00215-4c5 0 11 0 17 4 4 2 6 5 8 7l21 23 9 11c9 16 6 34 3 46l-2 10-11 1c-95 5-192 10-289 10zM78 234c-6 0-9 3-14 6l-1 1h-1l-41 29-3 3v4l6 35c0 1 0 4 2 5a2101 2101 0 00175 8c97 0 194-5 289-10l2-1c2-11 5-26-2-38l-7-9-21-23-6-5c-4-2-7-2-10-2h-3a9222 9222 0 01-299 3 788 788 0 01-51-4l-14-2h-1zm0 0M48 163c39-46 81-83 125-110A325 325 0 01340 6c38 0 69 9 92 26 7 6 12 11 15 17 4 8 4 16 0 22-3 5-10 9-21 12l-26 5c-16 2-34 5-48 13-7 4-10 10-8 14 1 3 4 5 6 6 14 8 31 10 48 10h6c14 0 28 0 41 5 15 4 27 14 31 26l1 3h-3a7269 7269 0 00-145 1h-3l4-23v-3l-4-3c-8-5-18-7-27-7-13 0-26 4-36 11l-1 1-1-1c-10-6-22-10-34-10-13 0-26 4-36 11l-2 3-1 6 1 14h-2l-137 2h-4zm0 0"/>
  <path fill="#f9d889" d="M264 148v-2l1-1c9-7 21-11 34-11 9 0 18 2 25 6h1l1 1v2l-12 81h-1l-42 1h-2zm29 46l-12 1a2 2 0 00-2 3 2 2 0 003 1 43 43 0 0120 0l2-2-1-2-10-1zm1-20c-5 0-11 0-16 2-1 0-2 1-1 2a2 2 0 002 2 57 57 0 0127-1l2-2v-1l-2-1-12-1zm2-23c-7 0-14 1-21 4-1 0-2 1-1 2a2 2 0 002 2 58 58 0 0135-2 2 2 0 000-4l-15-2zm0 0M199 225l-7-75v-3l2-1c9-7 20-10 33-10 12 0 23 3 32 9l1 1v2l5 77h-2a13007 13007 0 01-60 0zm28-31c-7 0-13 1-20 3l-1 1v2a2 2 0 003 1 60 60 0 0136 0l2-1-1-3c-6-2-13-3-19-3zm0-20c-7 0-13 1-20 3a2 2 0 00-1 2 2 2 0 003 1 60 60 0 0136 0l2-1c1-1 0-2-1-3-6-2-13-2-19-2zm-3-20c-6 0-13 1-19 3l-2 3a2 2 0 003 1 60 60 0 0137 0l2-1-2-3c-6-2-12-3-19-3zm0 0"/>
  <path fill="#bfc7d8" d="M306 402c-6 0-9-1-11-3-1-2-2-3-1-5 1-4 6-7 11-8l2-1h1c4 0 8 2 10 6 3 2 4 5 4 9l-1 1h-1l-4 1h-10zm0 0M261 402c-6 0-10-1-11-3-2-2-2-3-2-5 2-4 6-7 11-8l3-1c4 0 8 2 11 6 2 2 3 5 3 9v1h-2l-3 1h-10zm0 0M215 402c-5 0-9-1-11-3l-1-5c1-4 6-7 11-8l3-1c4 0 8 2 11 6 2 2 3 5 3 9v1h-2l-4 1h-10zm0 0"/>
  <path fill="#d8deec" d="M452 310l4-22v-1h1l30-3h2v2c2 7 1 16-1 24v1l-37 2zm0 0M429 288h2l18-1h3l-1 2a86 86 0 01-4 22v2h-2l-19 1h-2zm0 0M392 290h1l29-1h3l-5 26h-2l-29 1h-3zm0 0M357 304l3-10v-3h2l23-1h3l-6 24 1 2-3 1-24 1h-3zm0 0M331 292h23l2-1v3l-3 9-3 13-1 2h-1l-22 1h-3zm0 0M300 295v-3h27l-8 27h-1l-21 1h-3zm0 0M261 292h2l20 1h7l6-1-6 28h-2l-26 1h-2zm0 0M222 319c-1-8-2-17-1-25v-2h36l-1 29h-34zm0 0M202 321h-12l-2-30h2l25 1h2v2c-1 8 0 17 1 25v2h-16zm0 0M184 321h-21v-2-1l-4-25-1-1v-3l3 1 21 1h2l2 30zm0 0M157 321l-28-1h-1v-1h-1v-1l-5-31 3 1 28 1h1v2l1 2 4 25 1 3zm0 0M121 320l-18-1h-2v-1c-3-7-3-15-4-22l-2-10h3l18 1h2l5 33zm0 0M94 319l-21-1h-1l-1-2-5-30v-3l3 1 21 1h1l2 12c0 6 1 13 3 19l1 3zm0 0M65 317a1750 1750 0 01-36-2l-1-1v-1-2l-6-32 3 1 35 3h2v2l5 30 1 2zm0 0"/>
  <g fill="#5b5d6d">
    <path d="M326 170h2a6440 6440 0 01146-1h3l-1 3c-7 16-12 32-15 49l-1 3-2-1a41 41 0 00-16-2l-121 3h-3zm0 0M456 407h-4l-7-2h-3l-1-1v-1-1l-1-67v-2h2l19-1h2v3a364 364 0 01-4 71l-3 1zm0 0M441 130c-12-3-25-3-37-3h-6c-16 0-33-2-46-10l-4-3c-2-4 3-7 6-9 14-8 30-11 47-13l26-5c5-1 11-3 17-7l3-2v4a749 749 0 00-4 46v3zm0 0M435 260l-4-1c-6-3-10-10-12-15l-1-2 18-1v1c3 4 3 9 3 14l-2 3-2 1zm0 0M412 263l-5-1c-7-3-11-10-11-18l-1-2h19l1 1v1l2 13-1 4a5 5 0 01-4 2zm0 0M340 263h-3a17 17 0 01-10-10l-1-7-2-2h3l17-1h1l1 1 3 8-1 8c-2 2-5 3-8 3zm0 0M316 265c-2 0-5-2-8-5l-4-7-2-6-2-3h20v1l3 9v2c0 4-2 8-6 9h-1zm0 0M302 380l-2-14-2-25v-2h15l-1 2v5c1 11 1 23-1 34v2l-2-1h-2l-3 1h-2zm0 0M292 268c-4 0-8-4-10-7-2-4-2-9-2-15v-2h16v1l4 9v4c0 4-2 8-6 10h-2zm0 0M256 380l-1-37v-2l2-1h11v2l-2 38v2l-2-1h-2l-3 1h-3zm0 0M220 270h-1c-2-2-1-5-1-7l5-16v-2h12v2c1 8-4 17-11 22l-4 1zm0 0M212 379c1-12 0-24-1-36v-2h10v3l-1 35v2h-3l-3 1h-2zm0 0M198 267l-5-2 1-7a45 45 0 018-12v-1h17l-1 3c-3 6-8 12-14 16a13 13 0 01-6 3zm0 0M192 225a1269 1269 0 01-114-6c-5 0-9 1-14 3l-2 1-1-3c-3-16-7-32-14-46l-1-3h3l139-1h2l5 55zm0 0M131 265l-2-1-1-5 5-11a83 83 0 002-3l1-2 1 1a744 744 0 0013 0h6l-2 3-1 1c-5 6-10 12-17 15l-5 2zm0 0M108 262l-4-2c-1-1-1-2 1-4a101 101 0 017-12v-2h2l14 1h4l-3 3-10 10c-3 3-7 6-11 6zm0 0M83 260l-3-2c-1-2 2-5 3-6a57 57 0 0114-11h7l4 1-2 3c-5 5-12 10-18 13l-5 2zm0 0M76 406c-4 0-6-1-8-3l-2-8-4-56v-2h2l16 1h2v2a506 506 0 012 64h-1l-2 1-5 1zm0 0"/>
  </g>
  <path d="M484 265l-21-22-6-6c-5-3-10-2-15-2a9231 9231 0 01-298 3 780 780 0 01-65-6c-7 0-11 3-16 6l-2 2-41 28-4 4v5l6 35c0 2 0 5 2 7s5 2 7 2c56 5 113 6 170 6 97 0 194-5 289-10 2 0 3-1 4-3 2-11 5-27-2-39l-8-10zm-31-21l4 4 21 23 7 7a2512 2512 0 01-28 1l-2-3-13-13 3-6c0-5 0-10-2-14l10 1zm-8 67l-19 1 5-22 18-1a84 84 0 01-4 22zm-57 3l5-22 29-1-4 22-30 1zm-91 4l5-22v-2h22l-6 23-21 1zm-35 1l1-25a2700 2700 0 0031 1l-6 23-26 1zm-38 0c-1-8-2-17-1-25h32l-1 25h-30zm-121-2c-3-7-3-14-4-21l-1-8 18 1 5 29-18-1zm-30-1l-5-30 21 1 2 10 3 20-21-1zm10-50l8-3 6-4a8 8 0 004 7l-10 12-1 1-20-1zm23-10a99 99 0 018-12l14 1-10 10c-3 2-7 5-10 5l-3-1 1-3zm54-10l16 1-21 36-27-1 8-12 3-1c7-5 14-10 19-17l2-6zm34 1l-5 9c-1 2-4 7-1 12l4 3-8 13v1l-20-1 22-37h8zm80-1c0 6 0 12 3 17 2 5 6 9 11 10l5 13h-30v-40h11zm20 0l4 9v3c0 3-1 7-4 8-4 1-8-2-10-6s-2-9-2-14h12zm24 0l3 9v1c0 3-2 6-4 7l-7-4-4-7-3-6h15zm26-1l3 7-1 7c-2 2-5 3-8 2-4-1-7-5-8-7l-1-1-2-7 17-1zm18 0l22 39a2431 2431 0 01-25 0l-11-17 5-4c2-3 3-8 2-13l-2-5h9zm51-1v1l2 12v3l-3 1-4-1c-6-3-10-9-10-16h15zm22-1c2 4 2 9 2 13l-1 2h-4c-5-3-8-9-11-15h14zm-31 24l4 2h1l11 14a2499 2499 0 01-28-1l-21-37 18-1c1 10 7 19 15 23zm-72 19v-1l-11-16c3-1 5-3 6-5l9 5h4v1l11 16h-19zm-30 0l-2-3-4-10c4-1 7-4 9-8 2 3 5 4 7 5l1 1 9 15h-20zm-47 0h-32l1-1v-3l2-8h1c9-6 15-17 14-27h14zm-57-21l-3-1 1-5a43 43 0 018-12h12c-2 6-7 12-13 16l-5 2zm-89 3c5-1 9-3 13-6l2 6 2 2-8 11-18-1zm20 49l-4-27 27 1 1 3 4 25a2223 2223 0 01-28-2zm36 0a306 306 0 01-5-25l22 1 2 26a2583 2583 0 01-19-2zm35-44l7-3 5-4c0 5 2 7 4 9l2 1-1 3-1 4-1 3-22-1zm133 21h21l-2 8-4 13v1l-22 1zm26 10l3-10v-1l23-1-5 21v2l-24 1zm71-22l-2-1-10-13a10 10 0 005-7l5 4 6 1 14 15-18 1zm-200-35h3c1 8-3 16-10 20l-3 1v-5l5-15v-1h5zm-78-1l-1 1c-4 6-10 11-16 15l-5 1v-4a30 30 0 017-12v-1a969 969 0 0015 0zm-48-3c-5 5-11 10-17 13l-4 2-1-1 2-3a55 55 0 0114-11h6zm-39 3l2-1c5-3 7-5 12-5l7 1-8 7c-4 5-5 9-3 13v1l-13 12-2 3-34-3zm-35 67v-2l-5-29 35 3 5 30a1734 1734 0 01-35-2zm162 6l-2-26 25 1c-1 8 0 17 1 25h-24zm294-10l-32 2 4-22 30-3c1 7 0 15-2 23zm0 0"/>
  <path d="M505 267l-9-12-21-23-9-7c4-20 10-39 18-57l-1-3c-4-18-20-30-34-35l2-27 3-32v-1c3-7 2-16-1-23-4-7-9-13-18-19-23-18-56-28-95-28-57-1-116 16-170 48-47 28-91 68-131 118a4 4 0 001 6c7 17 13 34 16 52l-2 2h-1l-1 1-41 28c-2 1-6 4-9 10-3 7-2 13-2 15l6 35c1 2 2 9 7 15 7 6 14 6 17 7l26 2 4 56c0 4 1 8 4 12 2 2 5 5 12 5l6-1 6-3c2-2 2-6 3-7 0-20-1-41-3-61 36 2 73 3 113 3h4c1 13 2 27 1 40-4 2-7 5-9 9-1 3 0 7 2 11 4 4 10 6 16 6l11-1 5-1h2c2-1 3-2 4-5 1-5-1-11-5-15-1-3-4-4-6-6l1-38h22l1 40c-3 2-6 5-7 9-2 3-1 7 2 11s10 6 16 6l10-1 5-1h3l3-5a19 19 0 00-10-20l2-40h18l2 25 2 16c-4 2-7 5-8 9-1 3-1 7 2 11 4 4 10 6 16 6l10-1 6-1h2c1-1 3-2 3-5a19 19 0 00-10-20 184 184 0 002-41l115-5 1 66 1 5c2 3 6 4 8 4l7 2h5c2 0 5 0 7-2 3-3 3-6 4-9 2-22 3-45 2-68l22-1 12-1c2 0 3-1 4-3l2-12c3-13 7-32-4-50zm-46-46a42 42 0 00-17-2l-121 3 7-50 146-1c-6 16-11 33-15 50zm-259 2l-6-73v-2l1-1c18-13 45-13 63 0v1l4 75a8250 8250 0 01-59 0h-3zm71 0l-5-75v-1a56 56 0 0158-5l-11 80-42 1zm170-95a173 173 0 00-43-3c-16 0-32-2-45-9l-3-3c-1-2 2-5 5-6 14-8 29-11 46-13l27-5c5-1 11-3 17-7a789 789 0 00-4 46zM174 55C227 24 284 8 340 8c38 0 68 9 91 26 7 5 12 11 14 16 3 7 4 14 1 20-4 5-10 9-20 11l-26 5c-17 2-34 5-49 14-8 4-11 11-9 16l7 7c15 8 32 10 49 10h6c14 0 28 0 41 4 14 5 25 15 29 26l-145 1 3-21-1-4-4-4c-20-11-47-9-65 5a64 64 0 00-72 1l-3 3-1 7 1 12-137 2c38-47 80-84 124-110zM49 173l139-1 4 51a1263 1263 0 01-89-4l-8-1a129 129 0 00-17-1c-6 0-11 1-15 3-3-16-7-32-14-47zm33 228v2h-1c-4 1-9 1-11-1l-2-7-4-56 16 1c2 20 3 40 2 61zm147-2l-4 1c-7 1-16 1-19-2l-1-4c1-2 5-5 10-6l2-1c3 0 7 2 9 5 2 2 3 5 3 7zm-11-20a17 17 0 00-4 1c1-13 0-25-1-37h6v1l-1 35zm52 21c-6 1-16 2-19-2l-1-4c1-2 6-5 10-6l2-1c4 0 7 2 10 5l2 7-4 1zm-6-21h-2l-4 1-1-38h9l-2 37zm51 21c-6 1-16 2-19-2v-4c1-2 5-5 9-6l2-1c4 0 8 2 10 5 2 2 3 5 3 7l-5 1zm-5-54c1 11 1 22-1 33h-1l-4 1-2-14-2-24v-1h10v5zm149 55l-2 4h-4l-8-2h-2v-2l-1-66 19-1v1c1 22 0 44-2 66zm42-86l-2 9-9 1c-94 5-192 10-289 10-62 0-118-2-171-6-2-1-7-1-11-5s-5-8-5-10l-6-35c0-2-1-6 1-11l6-6 41-28 2-2c5-3 11-7 20-7h1l15 1 8 1a773 773 0 00128 4 9196 9196 0 00215-4c4 0 10 0 16 3l8 8 21 22 8 11c9 15 5 33 3 44zm0 0"/>
  <path d="M207 163c11-3 23-3 34 0a4 4 0 003-8c-13-4-27-4-40 1a4 4 0 103 7zm0 0M207 175a4 4 0 102 7c12-3 24-3 35 0a4 4 0 003-8c-13-3-27-3-40 1zm0 0M246 195c-12-4-27-4-39 0a4 4 0 102 8c11-4 24-4 35 0a4 4 0 102-8zm0 0M277 161c10-4 22-5 33-2a4 4 0 002-8c-13-3-26-2-38 2a4 4 0 103 8zm0 0M307 173c-10-2-20-2-30 1a4 4 0 103 8c8-3 17-3 25-1a4 4 0 102-8zm0 0M303 193c-7-2-15-2-23 0a4 4 0 102 8c7-1 13-2 19 0a4 4 0 002-8zm0 0"/>
</svg>
