<svg xmlns="http://www.w3.org/2000/svg" viewBox="0 0 513 513">
  <path fill="#fcd89f" d="M409 147a36 36 0 00-22-62v-4c0-11-10-21-22-21h-1a27 27 0 00-54 0l-2 2-4-1v-6a47 47 0 00-95-3 35 35 0 10-64 28 15 15 0 00-20 14h-5a27 27 0 00-11 52l36 86h226z"/>
  <path fill="#fcd89f" d="M409 147a36 36 0 00-22-62v-4c0-11-10-21-22-21h-1a27 27 0 00-54 0l-2 2-4-1v-6a47 47 0 00-95-3 35 35 0 10-64 28 15 15 0 00-20 14h-5a27 27 0 00-11 52l36 86h226z"/>
  <path fill="#fbc773" d="M103 141a27 27 0 0129-27l4-2c2-5 7-13 13-13h1c2 0 4-2 3-3a35 35 0 0159-34c3 3 8 2 9-1a47 47 0 0182-16 47 47 0 00-94 7 35 35 0 10-64 28 15 15 0 00-20 14h-5a27 27 0 00-17 48v-1z"/>
  <path fill="#e43e54" d="M390 468l-19-27H140l-14 27 4 28c0 5 5 9 9 9h238c5 0 9-4 9-9l4-28z"/>
  <path fill="#f9f7f8" d="M425 156c-20-16-42-18-69 3h-33v309h67l38-305c0-2-1-5-3-7z"/>
  <path fill="#e43e54" d="M289 159h-32v309h75l24-309c-23-20-45-21-67 0z"/>
  <path fill="#f9f7f8" d="M160 159c-27-21-49-19-69-3-2 2-3 5-3 7l38 305h58V165z"/>
  <path fill="#e43e54" d="M227 159c-22-21-44-20-67 0l24 309h68V159z"/>
  <path fill="#f9f7f8" d="M283 468l6-309c-22-19-43-22-62 0l6 309z"/>
  <g>
    <g fill="#efedef">
      <path d="M390 468zM136 156l9-6c-20-11-38-7-54 6-2 2-3 5-3 7l38 305h45l-38-305c0-2 1-5 3-7z"/>
    </g>
  </g>
  <g>
    <g fill="#efedef">
      <path d="M289 159l1-1-1 1zM257 144zM390 468z"/>
    </g>
  </g>
  <path fill="#fcd89f" d="M506 327a18 18 0 00-34-7 18 18 0 00-25 16 18 18 0 0023 17 18 18 0 1031-14c3-3 5-8 5-12z"/>
  <path fill="#fbce85" d="M503 356c-9 0-16-6-18-15a18 18 0 01-21-22 18 18 0 106 34 18 18 0 0034 3h-1z"/>
  <path fill="#fcd89f" d="M60 220a18 18 0 00-34 7 18 18 0 00-17 25 18 18 0 0028 7 18 18 0 1023-26c2-4 2-9 0-13z"/>
  <path fill="#fbce85" d="M23 262a18 18 0 0117-25 18 18 0 0120-18 18 18 0 00-34 8 18 18 0 00-17 25c3 6 8 10 15 11l-1-1z"/>
  <g>
    <path d="M430 150l-9-6c4-7 7-15 7-23 0-20-14-38-34-42-1-13-11-24-24-26a35 35 0 00-60-11c-1-5-3-10-6-14a7 7 0 10-13 7 40 40 0 015 25 7 7 0 008 9h3c3 0 5 0 7-2 2-1 3-3 3-6a20 20 0 0140 0c0 4 4 7 8 7v-1a14 14 0 0114 17 8 8 0 007 9 28 28 0 0121 45c-16-5-33-1-50 12-24-18-47-18-68-1-17-13-40-21-63 0-14-12-30-16-46-11-3-4-5-10-5-15 0-15 12-27 27-27a8 8 0 000-15 42 42 0 00-35 64l-7 5c-18-12-34-16-50-12a20 20 0 0113-36 7 7 0 009-8 7 7 0 0111-7 7 7 0 009-10c-2-4-2-8-2-13 1-13 12-25 26-25 11-1 22 6 26 16a8 8 0 0015-2 40 40 0 0154-35 8 8 0 005-14 55 55 0 00-71 31c-8-8-19-12-30-11a43 43 0 00-40 48c-8 1-14 7-16 14a35 35 0 00-24 58l-9 6c-4 4-6 9-5 14l41 333c1 9 9 15 17 15h238c8 0 16-6 17-15l41-333c1-5-1-10-5-14zm-148 13l-7 297h-34l-7-298c10-10 24-18 48 1zm-186-1a48 48 0 0116-9l10-2c8 0 19 3 31 12l17 225a8 8 0 0015-1l-17-225c18-15 35-14 51 0l7 298h-35l-3-41a7 7 0 10-15 1l3 40h-43L96 162zm281 335H139c-1 0-2 0-2-2l-2-20h246l-2 20c0 2-1 2-2 2zm6-37h-43l16-209a7 7 0 10-14-1l-17 210h-35l7-298c16-14 33-15 51 0l-4 56a7 7 0 1015 1l4-56c18-13 32-14 43-10l1 1 13 8s1 0 0 0z"/>
    <path d="M252 58a8 8 0 000 15c5 0 9 4 9 9a8 8 0 0015 0c0-13-11-24-24-24zM318 114c0-7 6-12 13-12a8 8 0 000-15c-16 0-28 12-28 27a8 8 0 0015 0zM512 327a25 25 0 00-45-16 25 25 0 10-4 50 25 25 0 0045-21c3-4 4-9 4-13zm-19 17l3 6a10 10 0 01-21 2 7 7 0 00-9-6h-3a10 10 0 114-19 8 8 0 0010-4c2-4 5-7 10-7a10 10 0 017 18c-3 3-3 7-1 10zM69 230a25 25 0 00-16-27c-6-2-13-2-19 1-7 3-13 9-15 17a25 25 0 1017 47 25 25 0 0033-38zm-13 28c-5 2-10 1-13-3a7 7 0 00-11-2l-2 1a10 10 0 11-4-19 7 7 0 008-8c0-4 2-8 6-10a10 10 0 0113 14c-1 3 0 7 4 9l4 5c3 5 0 11-5 13z"/>
  </g>
</svg>
