<svg xmlns="http://www.w3.org/2000/svg" viewBox="0 0 512 512">
  <defs/>
  <path fill="#e45a6e" d="M222 140c-3-5-9-8-14-8L86 142c-12 1-23 7-30 17L5 237a27 27 0 0018 42l99 15a15 15 0 0015-6l85-133c3-4 3-11 0-15z"/>
  <path fill="#d82e44" d="M372 290c-4-3-11-3-15 0l-133 85c-5 3-7 9-6 15l15 99a27 27 0 0042 18l78-51c10-7 16-18 17-30l10-122c0-5-3-11-8-14z"/>
  <path fill="#f1f1fb" d="M193 412c6 6 14 9 23 8a386 386 0 00255-193c41-79 43-162 40-202 0-13-11-24-24-24-40-3-123-1-202 40A386 386 0 0092 296c-1 9 2 17 8 23z"/>
  <path fill="#d7d6fb" d="M504 8L146 366l47 46c6 6 14 9 23 8a386 386 0 00255-193c41-79 43-162 40-202 0-6-3-12-7-17z"/>
  <path fill="#466288" d="M351 236a75 75 0 01-53-128 75 75 0 1153 128zm-43-117zM92 296c-1 9 2 17 8 23l93 93c6 6 14 9 23 8 26-5 52-13 75-24L116 221c-11 23-19 49-24 75z"/>
  <path fill="#fdb43a" d="M15 422c4 0 8-2 11-4l49-49a15 15 0 10-21-22L5 396a15 15 0 0010 26zM120 392c-6-6-16-6-21 0L4 486a15 15 0 1022 22l94-95c6-5 6-15 0-21z"/>
  <path fill="#f57a21" d="M165 437c-6-6-16-6-22 0l-49 49a15 15 0 0022 21l49-49c6-6 6-15 0-21zM4 508a15 15 0 0022 0l94-95c6-5 6-15 0-21z"/>
  <path fill="#354a67" d="M146 366l47 46c6 6 14 9 23 8 26-5 52-13 75-24l-87-88zM298 214a75 75 0 00106 0 75 75 0 000-106z"/>
  <path fill="#4bbefd" d="M351 116a45 45 0 00-32 77 45 45 0 1032-77z"/>
  <path fill="#0590fb" d="M383 129l-64 64a45 45 0 0064-64z"/>
</svg>
