<svg xmlns="http://www.w3.org/2000/svg" viewBox="0 0 512 512">
  <defs/>
  <circle cx="245" cy="267" r="245" fill="#ef8318"/>
  <g fill="#ffd00d">
    <path d="M179 299L16 492a3 3 0 004 4l193-163c-12-10-24-22-34-34zM152 250L46 376a3 3 0 004 4l117-99c-6-10-11-20-15-31zM234 346l-98 116a3 3 0 004 4l125-105c-11-4-21-9-31-15zM326 371l-33-3-77 92a3 3 0 004 4l110-93h-4zM141 186v-8L50 286a3 3 0 004 4l89-75-2-29z"/>
  </g>
  <circle cx="326" cy="186" r="186" fill="#eef6ff"/>
  <g fill="#d9eafc">
    <path d="M162 273l32 5a185 185 0 01-24-102l-4-11-26 13a187 187 0 0022 95zM270 21l-12-8c-23 9-44 23-62 40l5 30c17-26 41-47 69-62zM259 360a186 186 0 0082 11c-31-2-59-12-84-28l2 17z"/>
  </g>
  <path fill="#1a2b63" d="M486 164l26 13c-2-48-23-91-55-123l-6 38-87-57 30-22a186 186 0 00-136 0l30 22-86 57-6-39c-33 32-54 76-56 125l26-13 37 114-41-6c20 39 55 71 97 87l-4-28h142l-5 28c43-16 77-47 98-87l-41 7 37-116zm-49 117l-25 4-43-42 21-64 58-34 28 14-39 122zm12-177l-5 31-56 32-57-40V58l23-16 95 62zM298 42l23 16v69l-57 40-55-32-5-31 94-62zM176 159l28-14 58 33 20 64-43 43-24-4-39-122zm77 162l-4-29 42-43h69l43 43-5 29H253z"/>
</svg>
